<svg width="794" height="156" viewBox="0 0 794 156" fill="none" xmlns="http://www.w3.org/2000/svg">
<path d="M30.3333 68.982V1H1V145.288L44.3016 102.279L87.6032 153.613H126.714L65.254 75.9189L126.714 1H87.6032L30.3333 68.982Z" fill="black"/>
<path d="M204.937 153.613C114.422 110.326 157.444 1 211.921 1H249.635C343.222 41.2342 299.921 145.288 249.635 153.613H204.937Z" fill="black"/>
<path d="M425.635 1V27.3604H332.048V1H425.635Z" fill="black"/>
<path d="M364.175 55.1081H394.905V153.613H364.175V55.1081Z" fill="black"/>
<path d="M450.778 96.7297V1H482.905V96.7297H450.778Z" fill="black"/>
<path d="M538.778 124.477H450.778V155L538.778 153.613V124.477Z" fill="black"/>
<path d="M565.317 1H640.746V27.3604H597.444V62.045H660.302V92.5676H597.444V124.477H640.746V155H565.317V1Z" fill="black"/>
<path d="M684.048 27.3604V1H762.27C808.365 21.8108 794.397 75.9189 763.667 91.1802L793 155H758.079L732.937 93.955H716.175V155H685.444V63.4324H744.111C774.841 53.7207 759.476 27.3604 744.111 27.3604H684.048Z" fill="black"/>
<path d="M30.3333 68.982V1H1V145.288L44.3016 102.279L87.6032 153.613H126.714L65.254 75.9189L126.714 1H87.6032L30.3333 68.982Z" stroke="black"/>
<path d="M204.937 153.613C114.422 110.326 157.444 1 211.921 1H249.635C343.222 41.2342 299.921 145.288 249.635 153.613H204.937Z" stroke="black"/>
<path d="M425.635 1V27.3604H332.048V1H425.635Z" stroke="black"/>
<path d="M364.175 55.1081H394.905V153.613H364.175V55.1081Z" stroke="black"/>
<path d="M450.778 96.7297V1H482.905V96.7297H450.778Z" stroke="black"/>
<path d="M538.778 124.477H450.778V155L538.778 153.613V124.477Z" stroke="black"/>
<path d="M565.317 1H640.746V27.3604H597.444V62.045H660.302V92.5676H597.444V124.477H640.746V155H565.317V1Z" stroke="black"/>
<path d="M684.048 27.3604V1H762.27C808.365 21.8108 794.397 75.9189 763.667 91.1802L793 155H758.079L732.937 93.955H716.175V155H685.444V63.4324H744.111C774.841 53.7207 759.476 27.3604 744.111 27.3604H684.048Z" stroke="black"/>
</svg>
